# xmcd
#
# Track frame offsets:
# 150
# 19845
# 35430
# 54612
# 70860
# 89442
# 105457
# 122525
# 138607
# 154092
#
# Disc length: 2235 seconds
#
#
# Revision: 0
# Processed by: cddbd v1.5.1PL2 Copyright (c) Steve Scherf et al.
# Submitted via: Nero 7, 0, 5, 4 
#
DISCID=8208b90a
DTITLE=Wes Wiginton - Trails Les Traveled
DYEAR=1995
DGENRE=country
TTITLE0=Life Is Like A Rock
TTITLE1=Ten Days In The Saddle
TTITLE2=A Hundred Pair Of Jeans
TTITLE3=Diamonds And Coal
TTITLE4=Rambler And A Gambler
TTITLE5=Billy Joe Garcia
TTITLE6=Cowboy In You And Me
TTITLE7=Laramie James
TTITLE8=The River Runs Wild
TTITLE9=Cowgirl's Out Tonight
EXTD=
EXTT0=
EXTT1=
EXTT2=
EXTT3=
EXTT4=
EXTT5=
EXTT6=
EXTT7=
EXTT8=
EXTT9=
PLAYORDER=
